<?xml version="1.0" standalone="no"?>
<!DOCTYPE svg PUBLIC "-//W3C//DTD SVG 20010904//EN"
 "http://www.w3.org/TR/2001/REC-SVG-20010904/DTD/svg10.dtd">
<svg version="1.0" xmlns="http://www.w3.org/2000/svg"
 width="771.000000pt" height="1280.000000pt" viewBox="0 0 771.000000 1280.000000"
 preserveAspectRatio="xMidYMid meet">
<g transform="translate(0.000000,1280.000000) scale(0.100000,-0.100000)"
fill="#000000" stroke="none">
<path d="M6358 12758 c-52 -88 -128 -248 -212 -447 -83 -194 -157 -352 -178
-377 -6 -9 -22 -9 -61 1 -29 7 -75 16 -103 20 l-50 6 -56 -63 c-196 -224 -401
-533 -611 -919 l-46 -85 28 -17 c42 -25 94 -110 85 -139 -14 -48 -80 -168
-154 -283 -115 -179 -146 -235 -328 -597 -93 -183 -185 -359 -205 -390 -92
-141 -193 -236 -389 -365 -171 -113 -311 -173 -858 -369 -487 -174 -734 -338
-954 -634 -212 -284 -294 -489 -675 -1695 -213 -672 -578 -1778 -726 -2195
-53 -151 -165 -455 -247 -675 -83 -220 -219 -584 -303 -810 -182 -488 -290
-767 -307 -794 -13 -21 -10 -41 33 -256 78 -382 344 -772 734 -1076 436 -340
851 -524 1285 -569 58 -6 146 -15 197 -20 117 -13 444 -13 627 0 77 5 220 14
316 20 702 44 1277 171 1657 368 48 25 64 38 69 60 3 15 24 95 46 177 78 293
173 552 420 1140 207 492 241 578 338 852 151 429 173 489 342 938 173 458
318 851 448 1210 40 110 130 352 201 538 277 722 369 1015 431 1362 19 109 23
165 23 350 0 193 -3 233 -23 328 -78 364 -219 634 -613 1177 -130 180 -181
270 -200 355 -17 75 -4 128 71 285 38 81 109 276 201 550 78 234 147 428 153
433 14 9 132 0 254 -20 52 -8 96 -12 99 -9 7 7 184 446 233 577 46 125 85 260
105 366 l15 77 -81 83 -81 82 48 88 c118 217 206 348 308 457 30 33 46 59 46
75 0 39 -43 153 -81 217 -79 131 -315 326 -514 424 -142 70 -402 158 -570 194
-66 14 -129 28 -141 32 -17 4 -26 -3 -46 -38z m-428 -884 c0 -4 -10 -22 -21
-41 l-22 -34 -33 32 c-19 18 -34 37 -34 41 0 4 25 8 55 8 30 0 55 -3 55 -6z
m-161 -150 l42 -45 -22 -37 c-81 -135 -202 -365 -314 -595 -71 -147 -134 -267
-141 -267 -13 0 -122 112 -148 151 -17 26 -16 28 45 140 87 160 153 264 261
414 134 186 211 284 224 285 6 0 30 -20 53 -46z m1580 -558 c72 -73 76 -97 14
-90 -150 15 -153 16 -153 31 0 18 58 123 69 123 3 0 35 -29 70 -64z m-88 -131
c88 -11 86 -6 49 -146 -99 -379 -139 -484 -231 -613 -39 -55 -41 -56 -88 -56
-76 0 -345 30 -355 40 -15 15 59 131 243 378 98 132 204 279 236 327 41 63 61
85 73 81 9 -3 42 -8 73 -11z m-1992 -326 c17 -6 31 -15 31 -20 0 -5 -15 -40
-34 -77 -18 -37 -57 -122 -86 -190 -64 -148 -67 -135 74 -269 130 -123 250
-213 361 -268 88 -43 93 -45 230 -55 295 -22 392 -32 460 -47 l69 -16 36 41
c46 51 86 127 140 265 40 102 44 107 71 107 19 0 29 -5 29 -15 0 -14 -174
-545 -293 -891 -78 -227 -102 -340 -93 -439 18 -191 84 -332 267 -565 237
-303 321 -424 403 -588 123 -243 157 -457 121 -766 -46 -391 -156 -773 -467
-1616 -66 -179 -227 -617 -358 -975 -230 -628 -528 -1432 -644 -1739 -31 -82
-157 -401 -280 -710 -253 -635 -327 -830 -433 -1136 -41 -118 -78 -219 -82
-223 -5 -5 -70 63 -146 150 -77 87 -223 244 -326 348 l-188 190 20 45 c88 193
121 314 219 801 85 421 121 540 305 1004 288 726 633 1519 915 2105 73 151
193 401 267 555 256 531 453 1009 453 1098 0 53 -31 159 -72 247 -102 221
-315 411 -658 589 -74 38 -333 157 -575 264 -242 107 -654 290 -917 406 -262
116 -481 211 -486 211 -6 0 -18 -26 -27 -57 -93 -331 -172 -527 -515 -1268
-197 -427 -251 -560 -480 -1190 -338 -927 -502 -1341 -790 -1989 -200 -452
-545 -1178 -791 -1667 l-118 -236 -123 -23 c-149 -27 -325 -75 -476 -128 -89
-32 -112 -37 -112 -25 0 31 347 949 569 1507 211 529 331 880 602 1766 72 234
176 571 230 750 124 402 384 1207 451 1395 136 381 279 629 461 802 166 158
274 220 736 424 503 222 619 276 805 375 196 105 292 172 406 286 157 156 266
338 435 723 117 266 350 745 363 745 5 0 23 -5 41 -11z m-3839 -8826 c201 -94
410 -187 465 -208 55 -22 104 -42 109 -46 5 -5 -8 -60 -30 -130 l-38 -122 34
-29 c182 -157 417 -235 830 -277 649 -66 875 -74 1081 -36 126 24 176 42 202
77 l24 30 59 -48 c132 -107 278 -240 397 -363 154 -161 221 -246 208 -269 -21
-38 -687 -204 -1126 -281 -427 -75 -644 -96 -1010 -96 -264 0 -317 3 -445 23
-520 83 -867 227 -1316 546 -304 217 -459 402 -577 691 -73 178 -164 542 -141
565 25 25 454 109 659 129 61 6 126 13 145 15 76 8 115 -6 470 -171z"/>
</g>
</svg>
