<?xml version="1.0" encoding="UTF-8" standalone="no"?>
<!-- Created with Inkscape (http://www.inkscape.org/) -->
<svg
   xmlns:svg="http://www.w3.org/2000/svg"
   xmlns="http://www.w3.org/2000/svg"
   version="1.0"
   width="297mm"
   height="210mm"
   id="svg2158">
  <defs
     id="defs2160" />
  <g
     id="layer1">
    <path
       d="M 766.07695,663.82044 C 789.83612,647.17881 773.78144,628.68591 740.29269,634.12038 C 710.4967,638.95556 710.12775,632.19011 737.97982,591.7085 C 795.82833,507.62858 760.01611,386.64022 659.75325,327.42677 C 624.27196,306.47223 563.67671,288.78913 526.42109,288.51742 C 480.70642,288.18402 469.71543,282.07902 466.58704,255.28257 C 464.22497,235.04921 467.32795,227.98759 483.99585,215.66443 C 507.76693,198.08976 523.21393,170.69484 530.1251,133.85511 C 534.36495,111.25456 532.91351,106.75118 520.07627,102.67675 C 511.82383,100.05756 498.34643,101.51389 490.12647,105.91304 C 477.35604,112.74755 474.19444,111.31603 468.40021,96.076212 C 458.77831,70.768725 447.36806,66.128162 431.05756,80.889019 C 419.4194,91.421412 416.91701,103.56249 416.91701,149.49617 C 416.91701,149.49617 422.24503,191.42539 412.16545,201.50497 C 404.56295,209.10747 373.1237,214.35162 373.1237,214.35162 C 320.14819,225.29349 268.64179,267.32341 275.60011,293.9321 C 280.59021,313.01421 298.86943,329.92792 318.36335,333.50075 C 329.92574,335.61994 339.611,343.90057 343.20836,373.29547 C 350.81721,435.47006 358.69568,464.86103 397.09853,502.26652 C 425.59186,530.01989 434.2637,543.93151 436.80967,565.97198 C 439.87374,592.49846 438.24008,595.32338 409.25312,613.62202 C 409.25312,613.62202 378.43947,622.8387 378.43947,633.07388 C 378.43947,646.37825 410.00038,655.7382 410.00038,655.7382 C 450.92833,672.80184 470.42487,668.79499 592.12354,666.69689 C 662.38865,665.48555 726.54927,666.95094 734.70272,669.9534 C 744.14751,673.43132 755.53295,671.20576 766.07695,663.82044 z M 475.31919,613.02997 C 475.31919,604.11466 497.98273,565.94073 503.27572,565.94073 C 506.40009,565.94073 520.10066,577.43866 533.72136,591.49168 L 558.48636,617.04263 L 516.90277,617.04263 C 494.03176,617.04263 475.31919,615.23691 475.31919,613.02997 z"
       id="path2421"
       style="fill:#000000" />
  </g>
</svg>
